<?xml version="1.0" encoding="UTF-8"?>
<svg data-bbox="30.009 4.019 339.991 391.664" viewBox="0 0 400 400" height="400" width="400" xmlns="http://www.w3.org/2000/svg" data-type="color">
    <g>
        <path fill-rule="evenodd" fill="#fcfcfc" d="M151.4 31.556C125.22 46.691 87.24 68.631 67 80.312L30.2 101.55l-.096 98.525-.095 98.525 2.895 1.663c2.985 1.715 35.609 20.544 117.834 68.01 52.538 30.329 48.888 28.499 52.591 26.363l52.071-30.057c27.72-16.002 64.08-36.977 80.8-46.613 16.72-9.635 31.165-17.975 32.1-18.532l1.7-1.014-.003-98.31-.004-98.31-17.296-9.979a28361.186 28361.186 0 01-34.897-20.17C245.346 29.696 200.529 4.003 199.827 4.019c-.455.01-22.247 12.402-48.427 27.537M252 47.795l78.901 45.52 27.101 15.634-.101 91.204-.101 91.204-3.2 1.85-26.6 15.38c-89.949 52.006-124.085 71.714-126 72.743l-2.2 1.182-49-28.306c-26.95-15.568-57.64-33.3-68.2-39.405a26203.508 26203.508 0 00-29.884-17.25L42.032 291.4l-.016-91.268L42 108.864l5.5-3.173c3.025-1.744 17.38-10.039 31.9-18.433C156.941 42.435 199.822 17.747 200 17.824c.11.048 23.51 13.535 52 29.971m70.4 103.404c-14.823 1.984-23.474 14.768-19.227 28.412 2.224 7.149 6.626 10.523 18.252 13.993 10.091 3.011 12.302 4.72 12.26 9.471-.076 8.383-9.478 10.099-20.494 3.742-5.83-3.365-7.004-2.996-11.256 3.544l-2.756 4.239 1.51 1.336c9.053 8.006 25.844 10.504 36.437 5.42 7.944-3.814 12.474-11.476 12.474-21.103 0-10.614-4.789-15.577-19.776-20.496-8.848-2.905-11.277-4.496-11.702-7.666-.98-7.302 7.739-10.003 17.293-5.358 6.837 3.324 7.563 3.062 11.394-4.105l2.123-3.972-1.366-1.147c-5.673-4.764-16.478-7.472-25.166-6.31M60.369 187.3L46.541 223l7.568.109c7.029.101 7.662.05 8.89-.708 1.567-.969 1.366-.556 4.19-8.601l2.246-6.4h26.702l2.239 6.4c3.511 10.037 2.696 9.459 13.144 9.309l7.526-.109-13.819-35.7-13.82-35.7h-17.21l-13.828 35.7m58.431-28.9v6.8h20v58H156v-58h20v-13.6h-57.2v6.8m65.2 29v35.8h29.026c20.716 0 29.277-.129 29.9-.45 2.079-1.071 2.667-2.13 4.893-8.806l2.247-6.744h26.668l2.26 6.783c1.959 5.876 2.446 6.945 3.647 8l1.387 1.217h7.813c7.261 0 7.797-.049 7.584-.7-.125-.385-6.33-16.45-13.789-35.7l-13.56-35h-17.369l-13.653 35.284-13.654 35.284-.11-6.384-.11-6.384H200.8v-58H184v35.8m84.287-5.2c2.321 6.82 4.305 12.625 4.409 12.9.148.391-1.861.5-9.232.5h-9.422l4.679-13.943c3.892-11.598 4.735-13.767 5.012-12.9.184.574 2.233 6.623 4.554 13.443m-180.741-.469c2.45 7.222 4.454 13.297 4.454 13.5 0 .215-3.856.369-9.229.369-8.049 0-9.213-.078-9.1-.608.436-2.052 8.974-26.839 9.175-26.638.136.135 2.251 6.155 4.7 13.377" data-color="1"/>
        <path fill-rule="evenodd" fill="#54a4a4" d="M112.2 307.683c-2.085 1.196-2.551 4.803-.841 6.513l.959.959 85.341.122c92.268.133 90.055.163 91.187-1.234 1.202-1.484 1.039-4.617-.304-5.862l-1.059-.981-87.241.012c-64.864.009-87.447.13-88.042.471" data-color="2"/>
        <path fill-rule="evenodd" fill="#f4bc3b" d="M185.763 57.496c-.794.552 7.408 42.504 8.31 42.504.4 0 .721-.045.715-.1-1.8-14.718-6.768-42.514-7.614-42.604-.536-.057-1.171.033-1.411.2m26.475.804c-.334 1.626-6.638 40.865-6.638 41.315 0 .212.325.385.721.385 1.065 0 9.093-42.047 8.109-42.472-1.307-.564-1.966-.332-2.192.772M161 66.471c-.44.246-.858.494-.929.551-.071.057 4.656 8.212 10.506 18.124 5.849 9.911 10.742 18.298 10.872 18.637.267.697.521.751 1.28.269.592-.375-19.725-38.062-20.507-38.04-.232.007-.782.213-1.222.459m76.452.429c-2.199 3.496-20.235 36.551-20.125 36.883.522 1.568 1.942-.527 12.122-17.884 10.827-18.461 10.848-18.5 10-19.19-1.109-.903-1.321-.883-1.997.191M140.14 83.836c-.664 1.012-.653 1.056.491 1.958.643.508 8.099 6.686 16.569 13.728 11.654 9.69 15.525 12.701 15.913 12.381.751-.619 1.537.137-15.629-15.035-17.142-15.152-16.347-14.555-17.344-13.032m102.858 13.046c-14.119 12.414-17.351 15.587-15.502 15.219.554-.11 32.711-26.265 33.134-26.949.148-.239-.159-.863-.682-1.386l-.951-.951-15.999 14.067m-116.481 10.077c-.312 1.018-.305 1.436.028 1.562 23.821 9.016 42.604 15.116 40.435 13.131-.275-.251-33.037-13.423-39.408-15.844-.459-.174-.744.137-1.055 1.151M253 113.769c-18.238 7.165-22.224 9.031-19.286 9.031.566 0 39.923-13.931 40.26-14.25.283-.268-.538-2.276-.974-2.382-.22-.054-9.22 3.367-20 7.601M121.6 133.6v1.2h21.6c18.933 0 21.6-.074 21.6-.6 0-.33-.045-.608-.1-.617-.426-.074-37.584-1.162-40-1.171l-3.1-.012v1.2m136.2-.578c-9.24.274-18.015.515-19.5.538-2.115.031-2.7.17-2.7.64 0 .526 2.644.6 21.4.6h21.4v-1.2c0-1.174-.042-1.199-1.9-1.137-1.045.034-9.46.286-18.7.559" data-color="3"/>
        <path fill-rule="evenodd" fill="#ecd4a4" d="M172.561 246.194c-18.218 3.964-18.937 31.481-.961 36.787 5.012 1.479 12.989.644 17.667-1.849l2.333-1.243V264.4h-12.8v2.32c0 2.936.367 3.28 3.496 3.28h2.536l-.116 3.299-.116 3.3-1.6.566c-2.289.81-8.006.744-9.927-.115-9.03-4.04-9.585-19.275-.873-23.985 2.797-1.512 9.224-1.269 12.631.479 3.211 1.647 3.751 1.562 5.49-.859 1.689-2.352 1.439-2.775-2.897-4.901-4.486-2.2-9.563-2.743-14.863-1.59m-51.212 18.297L114.099 283l3.419.117c4.135.141 4.024.231 5.803-4.717l1.366-3.8 7.604-.108 7.605-.109 1.315 3.709c1.811 5.103 1.816 5.108 5.851 5.108 1.836 0 3.336-.135 3.333-.3-.002-.165-3.22-8.49-7.149-18.5l-7.145-18.2-3.75-.109-3.751-.109-7.251 18.509m83.851.109v18.6h7.2V246h-7.2v18.6m22 0v18.6h22v-6h-14.8V246h-7.2v18.6m32.8 0v18.6h24v-5.6h-16.4v-10h12.8v-6h-12.8V252H284v-6h-24v18.6m-124.866-3.182l2.764 7.582-5.404.112c-2.972.061-5.478.038-5.568-.052-.09-.09 1.015-3.369 2.455-7.285 1.441-3.917 2.619-7.388 2.619-7.715 0-1.095.357-.258 3.134 7.358" data-color="4"/>
    </g>
</svg>
